<svg width="180" height="31" viewBox="0 0 180 31" fill="none" xmlns="http://www.w3.org/2000/svg">
<rect x="74" y="14" width="106" height="17" fill="#10CB81"/>
<path d="M1.99063 12.704C1.99063 19.296 6.34263 24.32 13.5106 24.32C20.6466 24.32 24.9986 19.296 24.9986 12.704C24.9986 6.144 20.6466 1.12 13.5106 1.12C6.34263 1.12 1.99063 6.144 1.99063 12.704ZM7.11063 12.704C7.11063 8.384 9.25463 5.6 13.5106 5.6C17.7666 5.6 19.8786 8.384 19.8786 12.704C19.8786 17.056 17.7666 19.84 13.5106 19.84C9.25463 19.84 7.11063 17.056 7.11063 12.704ZM36.0004 1.44H27.9044V24H33.0244V17.28H36.0004C41.6964 17.28 46.0484 16.192 46.0484 9.344C46.0484 2.528 41.6964 1.44 36.0004 1.44ZM36.3204 12.8H33.0244V5.92H36.3204C39.3604 5.92 40.9284 6.24 40.9284 9.344C40.9284 12.48 39.3604 12.8 36.3204 12.8ZM66.5664 1.44H46.6944V5.92H54.0864V24H59.2064V5.92H66.5664V1.44ZM84.4756 5.92V1.44H69.1156V5.92H74.2356V19.52H69.1156V24H84.4756V19.52H79.3556V5.92H84.4756ZM87.3731 24H92.4931V5.92L91.5331 2.72H92.8131L96.4291 24H106.349L109.965 2.72H111.245L110.285 5.92V24H115.405V1.44H105.325L102.029 22.72H100.749L97.4531 1.44H87.3731V24ZM118.296 15.616C118.296 21.248 121.784 24.32 128.472 24.32C135.16 24.32 138.68 21.248 138.68 15.616V1.44H133.56V13.344C133.56 17.376 133.176 19.84 128.472 19.84C123.768 19.84 123.416 17.376 123.416 13.344V1.44H118.296V15.616ZM138.999 24H144.887L150.967 15.328L157.079 24H162.967L155.319 13.344V12.064L162.967 1.44H157.079L150.967 10.08L144.887 1.44H138.999L146.615 12.064V13.344L138.999 24Z" fill="white"/>
</svg>
